<svg width="216" height="208" viewBox="0 0 216 208" fill="none" xmlns="http://www.w3.org/2000/svg">
<path d="M196 48.0001H159.83C158.775 34.9788 152.856 22.8319 143.253 13.9753C133.649 5.11873 121.064 0.201416 108 0.201416C94.936 0.201416 82.3507 5.11873 72.7471 13.9753C63.1436 22.8319 57.2255 34.9788 56.17 48.0001H20C14.6957 48.0001 9.60859 50.1072 5.85786 53.858C2.10714 57.6087 0 62.6958 0 68.0001V188C0 193.304 2.10714 198.391 5.85786 202.142C9.60859 205.893 14.6957 208 20 208H196C201.304 208 206.391 205.893 210.142 202.142C213.893 198.391 216 193.304 216 188V68.0001C216 62.6958 213.893 57.6087 210.142 53.858C206.391 50.1072 201.304 48.0001 196 48.0001ZM108 24.0001C114.733 24.0008 121.239 26.4273 126.329 30.835C131.418 35.2428 134.748 41.3366 135.71 48.0001H80.29C81.2518 41.3366 84.5823 35.2428 89.6714 30.835C94.7606 26.4273 101.267 24.0008 108 24.0001ZM192 184H24V72.0001H56V84.0001C56 87.1827 57.2643 90.2349 59.5147 92.4854C61.7652 94.7358 64.8174 96.0001 68 96.0001C71.1826 96.0001 74.2348 94.7358 76.4853 92.4854C78.7357 90.2349 80 87.1827 80 84.0001V72.0001H136V84.0001C136 87.1827 137.264 90.2349 139.515 92.4854C141.765 94.7358 144.817 96.0001 148 96.0001C151.183 96.0001 154.235 94.7358 156.485 92.4854C158.736 90.2349 160 87.1827 160 84.0001V72.0001H192V184Z" fill="#A1A1AA"/>
</svg>
