<svg width="23" height="15" viewBox="0 0 23 15" fill="none" xmlns="http://www.w3.org/2000/svg">
<rect width="23" height="15" fill="#FAFAFA"/>
<path d="M6.08 4.464H4.964C4.836 4.464 4.772 4.496 4.772 4.56V12H3.512C3.24 12 3.06 11.96 2.972 11.88C2.892 11.792 2.852 11.612 2.852 11.34V4.008C2.852 3.728 2.892 3.544 2.972 3.456C3.06 3.368 3.24 3.324 3.512 3.324H6.08V4.464ZM6.752 8.232H7.892C8.22 8.232 8.432 8.308 8.528 8.46C8.624 8.604 8.672 8.836 8.672 9.156V10.932C8.672 11.46 8.532 11.784 8.252 11.904C8.116 11.968 7.944 12 7.736 12H5.252V10.872H6.26C6.588 10.872 6.752 10.756 6.752 10.524V8.232ZM6.596 3.324H7.736C8.056 3.324 8.26 3.396 8.348 3.54C8.444 3.684 8.492 3.92 8.492 4.248V6.552C8.492 7.016 8.408 7.352 8.24 7.56C8.08 7.768 7.74 7.872 7.22 7.872H5.252V6.732H6.14C6.34 6.732 6.464 6.684 6.512 6.588C6.568 6.492 6.596 6.344 6.596 6.144V3.324ZM12.3114 9.204C12.3114 9.3 12.2554 9.348 12.1434 9.348C11.6474 9.348 11.2554 9.348 10.9674 9.348C10.6874 9.348 10.5394 9.34 10.5234 9.324C10.5074 9.308 10.4954 9.268 10.4874 9.204V7.656C10.4954 7.592 10.5074 7.552 10.5234 7.536C10.5394 7.52 10.5794 7.512 10.6434 7.512C11.1474 7.512 11.6474 7.512 12.1434 7.512C12.2554 7.512 12.3114 7.56 12.3114 7.656V9.204ZM19.9834 7.644L19.9954 9.672C19.9954 10.624 19.8754 11.252 19.6354 11.556C19.3954 11.852 18.9594 12 18.3274 12H16.5634V10.86H17.4514C17.6514 10.86 17.7834 10.836 17.8474 10.788C17.9114 10.74 17.9434 10.648 17.9434 10.512V4.824C17.9434 4.68 17.9114 4.584 17.8474 4.536C17.7834 4.488 17.6514 4.464 17.4514 4.464H16.5634V3.324H18.4474C19.0314 3.324 19.4354 3.46 19.6594 3.732C19.8914 3.996 20.0074 4.516 20.0074 5.292L19.9834 7.644ZM16.2034 12.012H14.9434C14.6794 12.012 14.5034 11.968 14.4154 11.88C14.3274 11.784 14.2834 11.6 14.2834 11.328V4.008C14.2834 3.736 14.3274 3.556 14.4154 3.468C14.5034 3.372 14.6794 3.324 14.9434 3.324H16.2034V12.012Z" fill="#5C1DFA"/>
</svg>
