<svg width="64" height="64" viewBox="0 0 64 64" fill="none" xmlns="http://www.w3.org/2000/svg">
<path d="M61.3452 41.881C59.6822 38.008 55.6822 37.866 50.2762 38.64C50.3172 29.612 51.8382 20.99 54.7282 11.568C56.0722 8.19398 46.0582 2.06698 32.0082 2.00098C17.9582 2.06698 7.9432 8.19298 9.2872 11.567C12.1602 20.932 13.6712 29.614 13.7252 38.637C8.3262 37.866 4.3312 38.01 2.6682 41.88C-0.953798 49.077 10.4942 62 32.0072 62C53.5212 62 64.9682 49.077 61.3452 41.881ZM12.4892 47.843C12.4892 47.843 13.8462 43.098 13.6292 40.589C25.4332 51.213 38.5832 51.213 50.3862 40.589C50.4312 43.149 51.5252 47.843 51.5252 47.843C39.9052 58.9 24.1102 58.9 12.4892 47.843Z" fill="#FAFAFA"/>
</svg>
