<svg width="18" height="10" viewBox="0 0 18 10" fill="none" xmlns="http://www.w3.org/2000/svg">
<path d="M4.08 1.464H2.964C2.836 1.464 2.772 1.496 2.772 1.56V9H1.512C1.24 9 1.06 8.96 0.972 8.88C0.892 8.792 0.852 8.612 0.852 8.34V1.008C0.852 0.728 0.892 0.544 0.972 0.456C1.06 0.368 1.24 0.323999 1.512 0.323999H4.08V1.464ZM4.752 5.232H5.892C6.22 5.232 6.432 5.308 6.528 5.46C6.624 5.604 6.672 5.836 6.672 6.156V7.932C6.672 8.46 6.532 8.784 6.252 8.904C6.116 8.968 5.944 9 5.736 9H3.252V7.872H4.26C4.588 7.872 4.752 7.756 4.752 7.524V5.232ZM4.596 0.323999H5.736C6.056 0.323999 6.26 0.395999 6.348 0.539999C6.444 0.684 6.492 0.92 6.492 1.248V3.552C6.492 4.016 6.408 4.352 6.24 4.56C6.08 4.768 5.74 4.872 5.22 4.872H3.252V3.732H4.14C4.34 3.732 4.464 3.684 4.512 3.588C4.568 3.492 4.596 3.344 4.596 3.144V0.323999ZM10.3114 6.204C10.3114 6.3 10.2554 6.348 10.1434 6.348C9.64738 6.348 9.25537 6.348 8.96737 6.348C8.68737 6.348 8.53937 6.34 8.52337 6.324C8.50737 6.308 8.49537 6.268 8.48737 6.204V4.656C8.49537 4.592 8.50737 4.552 8.52337 4.536C8.53937 4.52 8.57937 4.512 8.64337 4.512C9.14737 4.512 9.64738 4.512 10.1434 4.512C10.2554 4.512 10.3114 4.56 10.3114 4.656V6.204ZM17.9834 4.644L17.9954 6.672C17.9954 7.624 17.8754 8.252 17.6354 8.556C17.3954 8.852 16.9594 9 16.3274 9H14.5634V7.86H15.4514C15.6514 7.86 15.7834 7.836 15.8474 7.788C15.9114 7.74 15.9434 7.648 15.9434 7.512V1.824C15.9434 1.68 15.9114 1.584 15.8474 1.536C15.7834 1.488 15.6514 1.464 15.4514 1.464H14.5634V0.323999H16.4474C17.0314 0.323999 17.4354 0.46 17.6594 0.732C17.8914 0.996 18.0074 1.516 18.0074 2.292L17.9834 4.644ZM14.2034 9.012H12.9434C12.6794 9.012 12.5034 8.968 12.4154 8.88C12.3274 8.784 12.2834 8.6 12.2834 8.328V1.008C12.2834 0.736 12.3274 0.556 12.4154 0.468C12.5034 0.372 12.6794 0.323999 12.9434 0.323999H14.2034V9.012Z" fill="#5c1dfa"/>
</svg>
