<svg width="512" height="512" viewBox="0 0 512 512" fill="none" xmlns="http://www.w3.org/2000/svg">
<path d="M256 112C286.928 112 312 86.9279 312 56C312 25.0721 286.928 0 256 0C225.072 0 200 25.0721 200 56C200 86.9279 225.072 112 256 112Z" fill="#808000"/>
<path d="M304 128H208C191.042 128.05 174.792 134.809 162.801 146.801C150.809 158.792 144.05 175.042 144 192V299.52C144 310.37 152.43 319.6 163.27 319.99C165.956 320.088 168.635 319.644 171.146 318.683C173.656 317.723 175.948 316.266 177.883 314.4C179.818 312.534 181.357 310.297 182.408 307.823C183.459 305.349 184 302.688 184 300V200.27C183.975 198.206 184.73 196.209 186.116 194.679C187.501 193.149 189.414 192.199 191.47 192.02C192.564 191.947 193.662 192.1 194.694 192.47C195.727 192.839 196.673 193.417 197.473 194.167C198.273 194.917 198.91 195.824 199.345 196.831C199.779 197.838 200.002 198.923 200 200.02V489C200 495.1 202.423 500.95 206.737 505.263C211.05 509.577 216.9 512 223 512C229.1 512 234.95 509.577 239.263 505.263C243.577 500.95 246 495.1 246 489V346.34C245.965 343.758 246.906 341.257 248.636 339.34C250.367 337.422 252.758 336.229 255.33 336C256.698 335.908 258.071 336.099 259.363 336.56C260.655 337.021 261.838 337.743 262.838 338.681C263.839 339.619 264.636 340.753 265.18 342.012C265.724 343.271 266.003 344.628 266 346V489C266 495.1 268.423 500.95 272.737 505.263C277.05 509.577 282.9 512 289 512C295.1 512 300.95 509.577 305.263 505.263C309.577 500.95 312 495.1 312 489V200.27C311.975 198.206 312.73 196.209 314.116 194.679C315.501 193.149 317.414 192.199 319.47 192.02C320.564 191.947 321.662 192.1 322.694 192.47C323.727 192.839 324.673 193.417 325.473 194.167C326.273 194.917 326.91 195.824 327.345 196.831C327.779 197.838 328.002 198.923 328 200.02V299.54C328 310.39 336.43 319.62 347.27 320.01C349.958 320.108 352.638 319.663 355.15 318.701C357.662 317.74 359.955 316.281 361.89 314.413C363.825 312.545 365.364 310.306 366.414 307.829C367.464 305.353 368.003 302.69 368 300V192C367.95 175.042 361.191 158.792 349.199 146.801C337.208 134.809 320.958 128.05 304 128Z" fill="#808000"/>
</svg>

