<svg width="176" height="139" viewBox="0 0 176 139" fill="none" xmlns="http://www.w3.org/2000/svg">
<path d="M0 116.286C0 122.12 2.31785 127.716 6.44365 131.842C10.5695 135.968 16.1652 138.286 22 138.286H154C159.835 138.286 165.431 135.968 169.556 131.842C173.682 127.716 176 122.12 176 116.286V55.7857H0V116.286ZM25.9286 86.4286C25.9286 83.3028 27.1703 80.3051 29.3805 78.0948C31.5908 75.8846 34.5885 74.6429 37.7143 74.6429H56.5714C59.6972 74.6429 62.6949 75.8846 64.9052 78.0948C67.1154 80.3051 68.3571 83.3028 68.3571 86.4286V94.2857C68.3571 97.4115 67.1154 100.409 64.9052 102.619C62.6949 104.83 59.6972 106.071 56.5714 106.071H37.7143C34.5885 106.071 31.5908 104.83 29.3805 102.619C27.1703 100.409 25.9286 97.4115 25.9286 94.2857V86.4286ZM154 0H22C16.1652 0 10.5695 2.31785 6.44365 6.44365C2.31785 10.5695 0 16.1652 0 22V32.2143H176V22C176 16.1652 173.682 10.5695 169.556 6.44365C165.431 2.31785 159.835 0 154 0Z" fill="#A1A1AA"/>
</svg>
