<svg width="24" height="25" viewBox="0 0 24 25" fill="none" xmlns="http://www.w3.org/2000/svg">
<g clip-path="url(#clip0_790_466)">
<path d="M14.8903 3.39396L14.9853 3.38696L15.0973 3.39096L15.2103 3.40796L15.3233 3.43796L21.3233 5.43796C21.5037 5.49809 21.6632 5.60839 21.7831 5.75592C21.903 5.90346 21.9783 6.08212 22.0003 6.27096L22.0073 6.38696V11.387C22.0073 11.6319 21.9174 11.8683 21.7546 12.0513C21.5918 12.2344 21.3676 12.3513 21.1243 12.38L21.0073 12.387H19.0073V19.387C19.0075 19.8915 18.8169 20.3775 18.4738 20.7475C18.1307 21.1175 17.6605 21.3441 17.1573 21.382L17.0073 21.387H7.00732C6.50275 21.3871 6.01676 21.1966 5.64678 20.8535C5.27679 20.5104 5.05017 20.0401 5.01232 19.537L5.00732 19.387V12.387H3.00732C2.76239 12.3869 2.52599 12.297 2.34295 12.1342C2.15992 11.9715 2.04298 11.7472 2.01432 11.504L2.00732 11.387V6.38696C2.00726 6.19681 2.06141 6.01058 2.16343 5.85011C2.26545 5.68964 2.41111 5.56158 2.58332 5.48096L2.69132 5.43796L8.69132 3.43796C8.84166 3.38789 9.00174 3.37426 9.15837 3.39819C9.315 3.42213 9.46371 3.48294 9.59223 3.57562C9.72075 3.6683 9.82541 3.79019 9.89758 3.93125C9.96975 4.07231 10.0074 4.22851 10.0073 4.38696C10.005 4.90594 10.2045 5.40551 10.5637 5.78011C10.9229 6.15472 11.4136 6.37503 11.9323 6.3945C12.4509 6.41397 12.9568 6.23108 13.343 5.88447C13.7293 5.53785 13.9657 5.05466 14.0023 4.53696L14.0113 4.29696L14.0283 4.18396L14.0653 4.04996L14.1093 3.94696L14.1593 3.85496L14.2273 3.76196L14.2963 3.68196C14.3523 3.62796 14.4093 3.58196 14.4713 3.54196L14.5673 3.48896L14.6703 3.44496L14.7783 3.41296L14.8903 3.39396Z" fill="#FAFAFA"/>
</g>
<defs>
<clipPath id="clip0_790_466">
<rect width="24" height="24" fill="#FAFAFA" transform="translate(0.00732422 0.386963)"/>
</clipPath>
</defs>
</svg>
