<svg width="512" height="512" viewBox="0 0 512 512" fill="none" xmlns="http://www.w3.org/2000/svg">
<g clip-path="url(#clip0_790_479)">
<path d="M255.75 112C286.678 112 311.75 86.9279 311.75 56C311.75 25.0721 286.678 0 255.75 0C224.822 0 199.75 25.0721 199.75 56C199.75 86.9279 224.822 112 255.75 112Z" fill="#E4E448"/>
<path d="M394.63 277.9L384.3 243.49V243.38L361.84 168.52H361.79L359.28 160.07C356.524 150.804 350.85 142.676 343.102 136.896C335.354 131.115 325.947 127.992 316.28 127.99H196.28C186.612 127.987 177.202 131.109 169.453 136.89C161.704 142.671 156.031 150.802 153.28 160.07L150.77 168.52H150.71L128.25 243.38V243.49L117.88 277.9C114.76 288.29 120.18 299.56 130.45 303.04C132.994 303.906 135.687 304.251 138.367 304.053C141.047 303.855 143.66 303.119 146.05 301.889C148.439 300.659 150.556 298.959 152.275 296.893C153.993 294.826 155.277 292.434 156.05 289.86L181.63 204.61L183.8 197.38C184.433 195.613 185.668 194.125 187.288 193.177C188.908 192.228 190.81 191.88 192.661 192.192C194.512 192.504 196.194 193.458 197.413 194.885C198.633 196.312 199.311 198.123 199.33 200C199.329 200.541 199.272 201.081 199.16 201.61L155.43 347.4C154.713 349.789 154.564 352.312 154.996 354.769C155.427 357.225 156.427 359.547 157.916 361.548C159.404 363.549 161.34 365.175 163.568 366.295C165.796 367.416 168.256 367.999 170.75 368H199.75V482.69C199.75 499.15 210.28 512 223.75 512C237.22 512 247.75 499.15 247.75 482.69V368H263.75V482.69C263.75 499.15 274.28 512 287.75 512C301.22 512 311.75 499.15 311.75 482.69V368H341.75C344.245 368.001 346.705 367.418 348.935 366.299C351.165 365.179 353.102 363.554 354.591 361.552C356.081 359.551 357.081 357.228 357.514 354.771C357.946 352.314 357.797 349.79 357.08 347.4L313.34 201.59C313.23 201.067 313.177 200.534 313.18 200C313.19 198.117 313.864 196.298 315.083 194.863C316.302 193.429 317.988 192.47 319.845 192.155C321.701 191.841 323.609 192.192 325.232 193.146C326.856 194.1 328.091 195.595 328.72 197.37L330.89 204.6L356.46 289.85C357.236 292.42 358.522 294.808 360.241 296.87C361.96 298.933 364.076 300.628 366.464 301.855C368.852 303.083 371.463 303.816 374.141 304.013C376.818 304.21 379.508 303.865 382.05 303C392.32 299.56 397.74 288.29 394.63 277.9Z" fill="#E4E448"/>
</g>
<defs>
<clipPath id="clip0_790_479">
<rect width="512" height="512" fill="white"/>
</clipPath>
</defs>
</svg>
